PathFileType	4	(X/Y/Z)	TVC_16_BWA3_walk_RCNL2025.trc
DataRate	CameraRate	NumFrames	NumMarkers	Units	OrigDataRate	OrigDataStartFrame	OrigNumFrames
100	100	7	27	mm	100	154	615
Frame#	Time	R_Shoulder			L_Shoulder			C7			J_Notch			R_Elbow			L_Elbow			R_Wrist			L_Wrist			R_Asis			L_Asis			R_Psis			L_Psis			Sacral			Thoracic			Sternum			R_Thigh_Lateral			R_Knee_Lateral			R_Shank_Lateral			R_Ankle_Lateral			R_Heel			R_Toe			L_Thigh_Lateral			L_Knee_Lateral			L_Shank_Lateral			L_Ankle_Lateral			L_Heel			L_Toe		
		X1	Y1	Z1	X2	Y2	Z2	X3	Y3	Z3	X4	Y4	Z4	X5	Y5	Z5	X6	Y6	Z6	X7	Y7	Z7	X8	Y8	Z8	X9	Y9	Z9	X10	Y10	Z10	X11	Y11	Z11	X12	Y12	Z12	X13	Y13	Z13	X14	Y14	Z14	X15	Y15	Z15	X16	Y16	Z16	X17	Y17	Z17	X18	Y18	Z18	X19	Y19	Z19	X20	Y20	Z20	X21	Y21	Z21	X22	Y22	Z22	X23	Y23	Z23	X24	Y24	Z24	X25	Y25	Z25	X26	Y26	Z26	X27	Y27	Z27
154	1.53000000	-184.039169	1299.746094	58.759224	-214.486160	1298.877686	-259.675964	-249.264450	1357.333984	-85.528717	-133.757675	1208.149780	-95.726608	-236.709457	1006.340942	177.241058	-223.320221	975.719360	-317.159454	-127.695404	802.473816	199.696815	-113.028324	800.032623	-247.499359	-208.756134	874.770508	33.597015	-262.153961	888.212280	-226.044312	-392.888458	926.616760	-12.760775	-411.124023	923.314758	-118.337067	-402.006241	924.965759	-65.548921	-360.073883	1108.449829	-79.493355	-137.232269	1015.119873	-113.949120	-264.095612	598.385437	129.627060	-235.599686	425.573334	34.417542	-275.030029	271.328979	87.860291	-334.921143	59.835659	12.930015	-383.662750	52.689285	-37.242813	-213.349075	42.091232	-24.000803	-228.502625	618.836426	-315.440857	-151.902283	449.482086	-240.179016	-213.956558	315.542480	-313.129364	-249.996231	86.260139	-255.739868	-291.050446	81.148216	-206.860794	-120.270638	48.740520	-232.687408
155	1.54000000	-180.060928	1299.527954	57.860489	-211.351944	1299.053833	-260.517670	-245.650726	1357.280884	-86.194351	-130.130493	1208.164307	-96.800224	-231.295624	1006.012451	176.477707	-220.425797	975.916443	-318.052979	-121.529213	802.438354	197.685974	-109.871368	800.511139	-248.159485	-204.875992	874.764832	32.501949	-258.446625	888.205322	-227.076096	-389.153076	926.554565	-13.648224	-407.416626	923.238586	-119.209404	-398.284851	924.896576	-66.428814	-356.376190	1108.382568	-80.336281	-133.468506	1015.294556	-115.225372	-260.835114	598.489868	129.038956	-234.399216	425.323425	33.992039	-274.385925	271.219025	87.636147	-334.915649	59.848694	12.884810	-383.674683	52.696487	-37.279366	-213.364197	42.085670	-24.002054	-224.555298	619.560730	-317.220703	-146.937241	450.373352	-241.876358	-203.233719	314.710083	-314.653534	-230.754929	83.894981	-256.587891	-271.783234	77.646378	-207.898636	-99.696480	51.009941	-232.452377
156	1.55000000	-176.104446	1299.266113	56.897362	-208.141205	1299.182617	-261.434967	-242.017578	1357.181885	-86.944313	-126.471230	1208.142456	-97.919144	-225.858032	1005.630981	175.614746	-217.559113	976.054016	-318.995758	-115.356953	802.343628	195.536674	-106.923695	800.810822	-248.902702	-201.028748	874.733154	31.382826	-254.608292	888.106079	-228.157730	-385.399414	926.451294	-14.672483	-403.635559	923.095520	-120.219955	-394.517487	924.773407	-67.446219	-352.640594	1108.259888	-81.306259	-129.652115	1015.433228	-116.548515	-257.474426	598.574280	128.412277	-233.199265	425.071960	33.562557	-273.737427	271.101746	87.396835	-334.919556	59.860821	12.838610	-383.687866	52.702076	-37.317074	-213.386536	42.083549	-23.997412	-220.528152	620.240662	-319.153870	-142.106216	451.077759	-243.614502	-192.798950	313.844666	-316.025726	-212.058212	81.972137	-257.135651	-252.925003	74.697632	-208.541794	-79.744286	53.535027	-232.073975
157	1.56000000	-172.170975	1298.962769	55.865353	-204.847061	1299.257568	-262.433197	-238.364410	1357.034424	-87.785820	-122.775665	1208.083496	-99.086960	-220.403336	1005.198547	174.646927	-214.710068	976.125732	-319.991943	-109.181870	802.194305	193.256500	-104.184692	800.919189	-249.726234	-197.209045	874.673584	30.243240	-250.633163	887.912415	-229.290161	-381.619446	926.301147	-15.837731	-399.770721	922.880676	-121.372444	-390.695084	924.590912	-68.605088	-348.862183	1108.077393	-82.406517	-125.776703	1015.533997	-117.915932	-254.059189	598.633484	127.738365	-231.988693	424.816345	33.125336	-273.071899	270.976288	87.134781	-334.932281	59.873390	12.789353	-383.701172	52.706844	-37.358776	-213.417542	42.084885	-23.985876	-216.433365	620.814331	-321.201508	-137.379105	451.594727	-245.355698	-182.835541	312.977570	-317.229675	-194.074493	80.455254	-257.433014	-234.638016	72.261360	-208.835114	-60.571312	56.228073	-231.677307
158	1.57000000	-168.261276	1298.620239	54.760017	-201.463531	1299.272949	-263.517487	-234.690567	1356.836426	-88.725807	-119.039597	1207.986816	-100.307411	-214.939926	1004.718140	173.569351	-211.867538	976.126465	-321.046234	-103.008549	801.995911	190.854324	-101.651833	800.826233	-250.626617	-193.409058	874.584229	29.085733	-246.516830	887.623169	-230.474777	-377.804321	926.098694	-17.146763	-395.812164	922.589600	-122.669441	-386.808243	924.344147	-69.908102	-345.035950	1107.831299	-83.639214	-121.835800	1015.595642	-119.325249	-250.631531	598.664062	127.010529	-230.757248	424.554138	32.676735	-272.378204	270.842590	86.844582	-334.953064	59.887836	12.735318	-383.713989	52.712090	-37.406826	-213.457611	42.089012	-23.966845	-212.303223	621.205139	-323.320038	-132.723053	451.925873	-247.063278	-173.510056	312.128235	-318.255585	-176.968277	79.292580	-257.532135	-217.086807	70.281876	-208.831238	-42.340885	58.985550	-231.374725
159	1.58000000	-164.375290	1298.241943	53.577034	-197.985809	1299.223633	-264.692719	-230.995224	1356.586548	-89.770851	-115.258842	1207.852905	-101.584297	-209.477798	1004.193298	172.377701	-209.019928	976.051758	-322.163727	-96.843063	801.754669	188.340385	-99.320362	800.524628	-251.600113	-189.618805	874.462830	27.912081	-242.256088	887.238098	-231.713120	-373.944397	925.838806	-18.600893	-391.750427	922.218384	-124.112259	-382.847412	924.028595	-71.356576	-341.156921	1107.518433	-85.005318	-117.822960	1015.617432	-120.774429	-247.225281	598.663818	126.224091	-229.495956	424.283142	32.213394	-271.648132	270.701752	86.523621	-334.981018	59.905586	12.675237	-383.726013	52.719414	-37.463062	-213.506180	42.094841	-23.940145	-208.190750	621.327454	-325.463745	-128.104218	452.074554	-248.704391	-164.949524	311.299408	-319.101837	-160.894470	78.419518	-257.482666	-200.433792	68.691147	-208.584473	-25.215727	61.691959	-231.255859
160	1.59000000	-160.512177	1297.831299	52.312233	-194.410263	1299.105469	-265.963501	-227.277359	1356.283691	-90.926994	-111.429329	1207.682373	-102.921471	-204.028427	1003.628540	171.068451	-206.155594	975.898315	-323.349670	-90.693130	801.477234	185.726257	-97.182880	800.010376	-252.643448	-185.826538	874.306824	26.723591	-237.848541	886.758057	-233.006439	-370.029755	925.517151	-20.199854	-387.576813	921.763794	-125.700859	-378.803284	923.640472	-72.950356	-337.220215	1107.136108	-86.504517	-113.731766	1015.599365	-122.261909	-243.863556	598.631714	125.376778	-228.197311	424.001434	31.732336	-270.877228	270.556061	86.172348	-335.015137	59.927917	12.608397	-383.736877	52.730469	-37.528763	-213.561752	42.101135	-23.906071	-204.165573	621.095337	-327.586975	-123.489693	452.045624	-250.252029	-157.222946	310.476379	-319.775787	-145.991852	77.761879	-257.327606	-184.834335	67.412445	-208.146194	-9.349543	64.224594	-231.378860
